# xmcd
#
# Track frame offsets:
#	150
#	14595
#	28604
#	42575
#	58500
#	75408
#	90498
#	104317
#	118619
#	132686
#	148664
#	165580
#
# Disc length: 2421 seconds
#
# Revision: 1
# Processed by: cddbd v1.5.2PL0 Copyright (c) Steve Scherf et al.
# Submitted via: audiograbber 1.83.01
#
DISCID=9e09730c
DTITLE=Roseanne Cash - The List
DYEAR=2009
DGENRE=Country
TTITLE0=Miss the Mississippi And You
TTITLE1=Motherless Child
TTITLE2=Sea Of Heartbreak Feat Bruce Springsteen
TTITLE3=TakeThese Chains From My Heart
TTITLE4=I'm Moving On
TTITLE5=Hearetaches By The Number Feat Elvis Costello
TTITLE6=500 Miles
TTITLE7=Long Black Veil Feat Jeff Tweedy
TTITLE8=She's Got You
TTITLE9=Girl From The North Country
TTITLE10=Silver Wings Feat Rufus Wainwright
TTITLE11=Bury Me Under The Weeping Willow
EXTD=
EXTT0=
EXTT1=
EXTT2=
EXTT3=
EXTT4=
EXTT5=
EXTT6=
EXTT7=
EXTT8=
EXTT9=
EXTT10=
EXTT11=
PLAYORDER=
